<svg width="1163" height="1163" viewBox="0 0 1163 1163" fill="none" xmlns="http://www.w3.org/2000/svg">
<path d="M763.243 583.791C762.307 682.572 740.229 777.977 711.672 860.545C657.982 1016.2 581.623 1126.04 581.623 1126.04H355.257C305.213 1126.04 258.102 1101.97 228.978 1061.19L30.9228 785.493C-6.20946 733.7 -8.08209 664.486 26.3398 610.821L45.1399 581.573C45.1399 581.573 135.938 664.979 296.047 719.359C373.466 745.798 467.196 765.288 574.699 765.288C604.883 765.288 633.317 758.118 658.696 745.428L574.699 638.762H701.225L732.936 679.295C750.899 651.698 761.962 618.903 763.243 583.791Z" fill="url(#paint0_linear_53_435)"/>
<path d="M574.7 765.288C467.221 765.288 373.466 745.798 296.048 719.359C135.938 664.979 45.1404 581.573 45.1404 581.573L348.333 108.637C376.891 63.9891 426.22 36.9839 479.196 36.9839H574.7C574.7 36.9839 491.072 144.241 435.263 303.883C407.198 383.987 386.156 477.273 386.156 576.769C386.156 676.264 470.621 765.313 574.7 765.313V765.288Z" fill="url(#paint1_linear_53_435)"/>
<path d="M1079.37 520.935C1024.87 489.224 944.642 450.342 842.091 422.967C765.017 402.294 675.402 388.077 574.724 388.077C474.046 388.077 386.18 472.543 386.18 576.745C386.18 477.249 407.198 383.962 435.287 303.858C491.096 144.217 574.724 36.9597 574.724 36.9597H683.977C736.953 36.9597 786.306 63.9896 814.962 108.612L1079.4 520.935H1079.37Z" fill="url(#paint2_linear_53_435)"/>
<path d="M1132.22 785.493L934.293 1061.19C905.046 1101.94 858.058 1126.04 808.014 1126.04H581.648C581.648 1126.04 658.007 1016.2 711.697 860.546C740.255 777.953 762.332 682.573 763.268 583.792C763.391 581.451 763.391 579.085 763.391 576.745C763.391 472.543 678.926 388.077 574.724 388.077C675.402 388.077 765.018 402.295 842.091 422.967C944.642 450.342 1024.87 489.224 1079.37 520.935L1136.93 610.797C1171.23 664.487 1169.48 733.676 1132.22 785.469V785.493Z" fill="url(#paint3_linear_53_435)"/>
<path d="M899.428 892.479H774.208L737.766 846.279C690.383 875.551 634.426 892.479 574.576 892.479C574.576 892.479 800.918 843.692 763.391 576.547C763.391 472.37 678.852 387.831 574.576 387.831C814.297 366.443 885.679 581.352 885.679 581.352C885.679 657.661 858.279 727.367 812.794 781.452L899.452 892.43L899.428 892.479Z" fill="url(#paint4_linear_53_435)"/>
<path d="M574.576 765.387C314.256 765.387 263.474 581.377 263.474 581.377C263.474 409.612 402.787 270.274 574.576 270.274C574.576 270.274 327.315 370.435 385.86 576.547C385.86 680.823 470.399 765.362 574.576 765.362V765.387Z" fill="url(#paint5_linear_53_435)"/>
<path d="M574.576 892.479C402.812 892.479 263.474 753.264 263.474 581.376C263.474 581.376 314.256 765.387 574.576 765.387C604.785 765.387 633.244 758.093 658.647 745.527L574.576 638.664H701.2L732.936 679.344C752.106 649.727 763.391 614.566 763.391 576.596C800.893 843.717 574.576 892.528 574.576 892.528V892.479Z" fill="url(#paint6_linear_53_435)"/>
<path d="M885.654 581.377C885.654 581.377 814.297 366.444 574.551 387.856C470.374 387.856 385.835 472.395 385.835 576.572C327.291 370.46 574.551 270.299 574.551 270.299C746.439 270.299 885.654 409.613 885.654 581.402V581.377Z" fill="url(#paint7_linear_53_435)"/>
<defs>
<linearGradient id="paint0_linear_53_435" x1="767.703" y1="591.503" x2="130.468" y2="959.4" gradientUnits="userSpaceOnUse">
<stop stop-color="#361F20"/>
<stop offset="1" stop-color="#DC000D"/>
</linearGradient>
<linearGradient id="paint1_linear_53_435" x1="573.591" y1="765.929" x2="223.927" y2="160.306" gradientUnits="userSpaceOnUse">
<stop stop-color="#361F20"/>
<stop offset="1" stop-color="#DC000D"/>
</linearGradient>
<linearGradient id="paint2_linear_53_435" x1="386.18" y1="306.84" x2="1079.37" y2="306.84" gradientUnits="userSpaceOnUse">
<stop stop-color="#361F20"/>
<stop offset="1" stop-color="#DC000D"/>
</linearGradient>
<linearGradient id="paint3_linear_53_435" x1="580.219" y1="384.899" x2="968.493" y2="1057.42" gradientUnits="userSpaceOnUse">
<stop stop-color="#361F20"/>
<stop offset="1" stop-color="#DC000D"/>
</linearGradient>
<linearGradient id="paint4_linear_53_435" x1="737.002" y1="386.352" x2="737.002" y2="892.479" gradientUnits="userSpaceOnUse">
<stop stop-color="#181618"/>
<stop offset="1" stop-color="#851619"/>
</linearGradient>
<linearGradient id="paint5_linear_53_435" x1="603.084" y1="748.928" x2="367.823" y2="341.459" gradientUnits="userSpaceOnUse">
<stop stop-color="#181618"/>
<stop offset="1" stop-color="#851619"/>
</linearGradient>
<linearGradient id="paint6_linear_53_435" x1="608.308" y1="487.03" x2="403.428" y2="841.869" gradientUnits="userSpaceOnUse">
<stop stop-color="#181618"/>
<stop offset="1" stop-color="#851619"/>
</linearGradient>
<linearGradient id="paint7_linear_53_435" x1="376.891" y1="425.826" x2="885.654" y2="425.826" gradientUnits="userSpaceOnUse">
<stop stop-color="#181618"/>
<stop offset="1" stop-color="#851619"/>
</linearGradient>
</defs>
</svg>
